<svg width="504" height="421.7" xmlns="http://www.w3.org/2000/svg">
 <metadata id="metadata31">image/svg+xml</metadata>

 <style type="text/css">.st0{fill:#000000;}</style>
 <g>
  <title>background</title>
  <rect x="-1" y="-1" width="506" height="423.7" id="canvas_background" fill="none"/>
 </g>
 <g>
  <title>Layer 1</title>
  <g id="Layer_1_1_" fill="#000000">
   <g id="Nissan_Badge_1_" fill="#000000">
    <g id="g20" fill="#000000">
     <path stroke="#000000" stroke-width="0" class="st0" d="m293.7,227.7c-0.4,0.1 -2,0.1 -2.7,0.1l-51.6,0l0,12l52.5,0c0.4,0 3.5,0 4.1,-0.1c10.7,-1 15.6,-9.9 15.6,-17.7c0,-8 -5.1,-16.6 -14.8,-17.5c-1.9,-0.2 -3.5,-0.2 -4.2,-0.2l-34.3,0c-1.5,0 -3.2,-0.1 -3.8,-0.3c-2.7,-0.7 -3.7,-3.1 -3.7,-5.1c0,-1.8 1,-4.2 3.8,-5c0.8,-0.2 1.7,-0.3 3.6,-0.3l49.5,0l0,-11.8l-50.3,0c-2.1,0 -3.7,0.1 -5,0.3c-8.6,1.2 -14.6,8.1 -14.6,16.9c0,7.2 4.5,15.6 14.4,17c1.8,0.2 4.3,0.2 5.4,0.2l33.4,0c0.6,0 2.1,0 2.4,0.1c3.8,0.5 5.1,3.3 5.1,5.8c0,2.4 -1.5,5 -4.8,5.6z" id="path4" fill="#000000"/>
     <path stroke="#000000" stroke-width="0" class="st0" d="m195.9,227.7c-0.4,0.1 -2,0.1 -2.6,0.1l-51.7,0l0,12l52.5,0c0.4,0 3.5,0 4.1,-0.1c10.7,-1 15.6,-9.9 15.6,-17.7c0,-8 -5.1,-16.6 -14.8,-17.5c-1.9,-0.2 -3.5,-0.2 -4.2,-0.2l-34.3,0c-1.5,0 -3.2,-0.1 -3.8,-0.3c-2.7,-0.7 -3.7,-3.1 -3.7,-5.1c0,-1.8 1,-4.2 3.8,-5c0.8,-0.2 1.7,-0.3 3.6,-0.3l49.5,0l0,-11.8l-50.3,0c-2.1,0 -3.7,0.1 -5,0.3c-8.6,1.2 -14.6,8.1 -14.6,16.9c0,7.2 4.5,15.6 14.4,17c1.8,0.2 4.3,0.2 5.4,0.2l33.4,0c0.6,0 2.1,0 2.4,0.1c3.8,0.5 5.1,3.3 5.1,5.8c0,2.4 -1.4,5 -4.8,5.6z" id="path6" fill="#000000"/>
     <rect stroke="#000000" stroke-width="0" x="101.7" y="181.4" class="st0" width="13" height="58.7" id="rect8" fill="#000000"/>
     <polygon stroke="#000000" stroke-width="0" class="st0" points="73,240.1 73,181.4 60,181.4 60,225.2 16.7,181.4 0,181.4 0,240.1 13,240.1 13,196.1 56.6,240.1     " id="polygon10" fill="#000000"/>
     <polygon stroke="#000000" stroke-width="0" class="st0" points="491.1,181.4 491.1,225.2 447.8,181.4 431.1,181.4 431.1,240.1 444.1,240.1 444.1,196.1 487.6,240.1     504,240.1 504,181.4    " id="polygon12" fill="#000000"/>
     <path stroke="#000000" stroke-width="0" class="st0" d="m363.4,181.4l-36.6,58.7l15.8,0l6.5,-10.5l42.7,0l6.5,10.5l15.7,0l-36.6,-58.7l-14,0zm21.7,37.1l-29.3,0l14.7,-23.6l14.6,23.6z" id="path14" fill="#000000"/>
     <path stroke="#000000" stroke-width="0" class="st0" d="m72.3,148.1c26.2,-76.5 98.4,-127.9 179.8,-127.9s153.7,51.4 179.8,127.9l0.2,0.6l57.3,0l0,-6.9l-23.8,-2.8c-14.7,-1.7 -17.8,-8.2 -21.8,-16.4l-1,-2c-34.4,-73.2 -109.3,-120.6 -190.7,-120.6c-81.5,0 -156.3,47.4 -190.7,120.8l-1,2c-4,8.2 -7.1,14.7 -21.8,16.4l-23.8,2.8l0,6.9l57.2,0l0.3,-0.8z" id="path16" fill="#000000"/>
     <path stroke="#000000" stroke-width="0" class="st0" d="m432.1,272.9l-0.2,0.6c-26.2,76.5 -98.4,127.8 -179.8,127.8l0,0c-81.4,0 -153.7,-51.4 -179.8,-127.9l-0.2,-0.6l-57.2,0l0,6.9l23.8,2.8c14.7,1.7 17.8,8.2 21.8,16.4l1,2c34.4,73.4 109.3,120.8 190.7,120.8l0,0c81.4,0 156.3,-47.4 190.7,-120.7l1,-2c4,-8.2 7.1,-14.7 21.8,-16.4l23.8,-2.8l0,-6.9l-57.4,0z" id="path18" fill="#000000"/>
    </g>
    <g id="Layer_2_2_" fill="#000000">
     <g id="Layer_3_1_" fill="#000000"/>
    </g>
   </g>
  </g>
 </g>
</svg>