<svg width="300" height="300" xmlns="http://www.w3.org/2000/svg">
 <!-- Created with Method Draw - http://github.com/duopixel/Method-Draw/ -->

 <g>
  <title>background</title>
  <rect fill="#fff" id="canvas_background" height="302" width="302" y="-1" x="-1"/>
  <g display="none" overflow="visible" y="0" x="0" height="100%" width="100%" id="canvasGrid">
   <rect fill="url(#gridpattern)" stroke-width="0" y="3" x="3" height="600" width="800"/>
  </g>
 </g>
 <g>
  <title>Layer 1</title>
  <defs>
   <style>.cls-1{fill:none;}.cls-2{clip-path:url(#clip-path);}.cls-3{fill:#eb0a1e;}.cls-4{fill:#fff;}</style>
   <clipPath id="svg_5">
    <rect id="svg_7" height="550" width="1300" class="cls-1"/>
   </clipPath>
  </defs>
  <g id="svg_11">
   <g transform="matrix(0.801846, 0, 0, 0.801846, -1881.77, -1410.68)" id="svg_8" class="cls-2">
    <rect id="svg_9" height="375" width="375" y="1759.28592" x="2346.79397" class="cls-3"/>
    <path id="svg_10" d="m2534.87397,1853.19592c-77.94,0 -138,39.68 -138,93.75s60.08,93.75 138,93.75s138,-39.68 138,-93.75s-60.06,-93.75 -138,-93.75zm84.34,44.15c0,12.42 -19.83,22 -51.61,25.83c-3,-29.68 -11.56,-49.21 -22.57,-56.5c33.9,2.11 74.18,14.11 74.18,30.67zm-84.34,100.21c-11.05,0 -20.08,-17.24 -20.79,-50.47c6.63,0.54 13.57,0.83 20.79,0.83s14.15,-0.29 20.78,-0.83c-0.7,33.23 -9.74,50.47 -20.78,50.47zm0,-72.54c-6.79,0 -13.28,-0.22 -19.43,-0.62c3,-19.87 10.57,-36.22 19.43,-36.22s16.42,16.35 19.42,36.22c-6.15,0.39 -12.63,0.62 -19.42,0.62zm-10.14,-58.36c-11,7.28 -19.62,26.82 -22.59,56.52c-31.78,-3.84 -51.62,-13.41 -51.62,-25.83c0,-16.56 40.29,-28.63 74.21,-30.69zm-104.44,76.61a60.55,60.55 0 0 1 12.06,-36.39c3.09,17.79 29,33.14 68.68,38.75c0,0.45 0,0.88 0,1.32c0,43.38 10.1,71.34 24,80.16c-58.74,-3.7 -104.74,-40.02 -104.74,-83.84zm124.47,83.84c13.88,-8.82 24,-36.78 24,-80.16c0,-0.44 0,-0.87 0,-1.32c39.64,-5.61 65.6,-21 68.68,-38.75a60.49,60.49 0 0 1 12.06,36.39c-0.05,43.82 -46.09,80.14 -104.75,83.84l0.01,0z" class="cls-4"/>
   </g>
  </g>
 </g>
</svg>