<svg width="590" height="280" xmlns="http://www.w3.org/2000/svg">

 <g>
  <title>background</title>
  <rect fill="none" id="canvas_background" height="282" width="592" y="-1" x="-1"/>
 </g>
 <g>
  <title>Layer 1</title>
  <g id="svg_1" clip-rule="evenodd" fill-rule="evenodd">
   <path id="svg_2" d="m-25,-174l640.7518,0l0,640.7518l-640.7518,0l0,-640.7518z" fill="#fff"/>
   <path id="svg_3" d="m3.26866,204.12654l22.61426,0l0,24.86472l40.39852,0l0,-24.86472l22.33171,0l0,69.78409l-22.33171,0l0,-29.38225l-40.68772,0l0,29.10302l-22.32506,0l0,-69.50486zm87.88414,0l22.03586,0l23.17272,26.84259l22.89017,-26.84259l21.75663,0l-33.6272,42.66227l0,27.12182l-22.32174,0l0,-29.0997l-33.90643,-40.6844zm92.68091,0l22.32506,0l0,53.96442l35.88431,0c5.65107,0 9.32427,-5.6411 9.32427,-11.58137l0,-42.38304l22.31841,0l0,55.66306c0,8.75584 -9.88605,13.8418 -15.54045,13.8418l-74.3116,0l0,-69.50486zm94.65546,0l74.32157,0c8.75916,0 15.823,5.36187 15.823,16.25182l0,53.39266l-22.32174,0.13961l0,-42.37972c0,-5.92365 -1.9812,-9.45724 -9.61015,-9.45724l-33.62388,0l0,51.99319l-24.58881,0l0,-69.94033zm96.92918,0l64.98401,0c13.00411,0 23.03643,10.45116 23.03643,18.50228l0,32.0715c-0.14294,5.64775 -8.05776,19.207 -17.94382,19.207l-70.07329,0l0,-69.78077l-0.00332,0zm22.7439,54.25029l34.29868,0c4.9397,0 8.75916,-3.6732 8.75916,-8.2007l0,-20.34054c0,-4.94635 -4.06545,-7.90153 -9.28438,-7.90153l-33.77347,0l0,36.44277zm92.83049,-54.54614l69.65113,0l0,70.07994l-24.87137,0l0,-18.07346l-42.81186,0l0,18.07346l-25.14395,0l0,-45.49446c-0.56843,-15.25125 13.00079,-24.58549 23.17604,-24.58549zm1.68535,24.88466l0,11.28885l42.9548,0l0,-17.80753l-36.17683,0c-4.23166,0.00332 -6.77796,2.55295 -6.77796,6.51868zm72.48331,-24.72843l22.32174,0l0,72.04452l-22.32174,0l0,-72.04452zm-268.42593,-201.91281c-92.63105,0 -167.72715,37.07768 -167.72715,82.8015c0,45.72715 75.0961,82.80815 167.72715,82.80815c92.6244,0 167.72382,-37.07768 167.72382,-82.80815c-0.00332,-45.7205 -75.10275,-82.8015 -167.72382,-82.8015zm-15.91275,18.42914c19.14384,-6.76799 76.02022,0 98.11259,10.61072c7.07049,6.78129 -31.52633,28.56783 -77.48285,38.01177c-65.70535,13.2501 -34.47819,-37.42672 -20.62974,-48.62249zm-112.83861,98.11259c-14.44348,-10.29825 -42.72543,-39.77025 4.12528,-70.40904c24.74837,-14.4335 38.5935,-17.68453 55.67968,-21.21479c8.25389,-1.7751 14.1443,0.29253 6.77796,6.48211c-15.61358,16.20528 -48.02414,69.81733 -50.96602,81.61145c-2.36348,7.96136 -7.07381,10.01237 -15.6169,3.53026zm134.93098,34.18566c-27.69025,2.93856 -89.26367,-6.18959 -90.44707,-14.13433c1.1834,-19.16378 97.81674,-50.98264 115.19544,-33.30476c7.37299,13.84513 -6.76799,46.55154 -24.74837,47.43909zm140.83802,-55.69963c-7.07714,16.2086 -30.93796,34.48484 -81.01975,46.86068c-7.66884,1.75516 -10.31819,-2.95185 -5.31201,-7.37299c8.25721,-5.00619 48.03079,-71.58911 53.03697,-84.85583c2.94853,-6.78129 8.54309,-4.11863 12.08332,-1.4726c15.91275,10.30822 27.98943,27.1052 21.21147,46.84074z" fill="#295ba7"/>
  </g>
 </g>
</svg>