<svg height="308" width="797"
  xmlns="http://www.w3.org/2000/svg"
  xmlns:xlink="http://www.w3.org/1999/xlink">
  <path d=" M 736.75 5.75 C 732.7625,5.6125 573.8000000000001,5.725 383.5,6 C 37.5,6.5 37.5,6.5 32,9.482542591981868 C 28.975,11.122941017571897 23.8,15.203621884239592 20.5,18.550722295687862 C 17.2,21.89782270713613 13.059147154463503,27.080678540744287 11.298104787696673,30.068179703705994 C 9.306285976188928,33.44717905550084 7.702959428772081,37.956512809959555 7.055658944973345,42 C 6.390349991587772,46.155980565079 6.012384146634816,81.46233560968804 6.0075541572769,139.90503626847828 C 6.000000000000455,231.31007253695657 6.000000000000455,231.31007253695657 10.152735691105306,224.90503626847828 C 12.436740321212975,221.38226632081523 30.38819899211655,193.04013175198978 50.04486607089103,161.9225150044217 C 69.70153314966552,130.80489825685368 91.50088236527377,96.37989825685368 98.48786432779826,85.42251500442173 C 106.3551993934072,73.08451185062128 113.53440019110971,63.08802255593306 117.34573394801231,59.1643705269161 C 120.73058027660554,55.67977431671995 126.26914982047745,50.833708386181584 129.65366626772766,48.39533512571972 C 133.03818271497786,45.95696186525785 138.7865336549854,42.61109493029668 142.42777946774436,40.96007527025044 C 146.06902528050333,39.3090556102042 152.7498754600259,37.07077425665658 157.2741132000167,35.98611670681127 C 162.15075922341535,34.81697148695527 168.96084833078754,34.01717774995509 174,34.021787122060445 C 178.675,34.02606340029279 185.31712045038404,34.693765248522624 188.76026766752005,35.50556900701564 C 192.20341488465607,36.317372765508644 197.60341488465608,38.29806502710828 200.76026766752005,39.90710736612594 C 203.91712045038403,41.516149705143604 208.5921369233046,45.00779514099977 211.1491931628991,47.6663194458063 C 213.70624940249363,50.324843750612835 216.9742931799625,54.85848043967901 218.41151266838554,57.741067643731135 C 219.84873215680858,60.62365484778326 221.6662606994713,65.79865484778325 222.45046498541384,69.24106764373113 C 223.23466927135638,72.68348043967902 225.6955467755283,96.64999999999999 227.9190816613514,122.5 C 230.14261654717453,148.35000000000002 234.44545108120718,198.17335799780992 237.48093618142397,233.21857332846648 C 240.51642128164076,268.26378865912307 242.99999999999994,298.07628865912307 242.99999999999997,299.4685733284665 C 243,302 243,302 268.9290415137285,302 C 294.8580830274571,302 294.8580830274571,302 296.34341751306005,296.75 C 297.1603514801417,293.8625 302.85235153274385,273.275 308.9923065188427,251 C 315.13226150494154,228.725 323.75873195959645,197.45 328.16224086252026,181.5 C 332.5657497654441,165.55 339.7326059272607,138.58942489559453 344.08858788877933,121.58761087909895 C 348.444569850298,104.58579686260336 351.83850277747297,90.50516944413485 351.6306610602792,90.29732772694669 C 351.42281934308534,90.08948600975853 348.83339444748873,89.4493761783539 345.87638351450886,88.87486143493638 C 342.9125699028203,88.29902500576881 321.67967787007876,87.64408475502852 298.5591345690048,87.41533482683597 C 269.23135135573796,87.12517173608501 256.41125281435785,86.66542103160003 255.92990101177202,85.88657745447009 C 255.55129854234133,85.27398579070658 254.92772518630377,80.43640018282026 254.54418244279967,75.13638721472276 C 254.16063969929556,69.83637424662524 253.04704429499589,58.3 252.06952598880036,49.5 C 251.09200768260484,40.7 250.47802813005896,33.1625 250.70512698314283,32.75000000000001 C 250.9322258362267,32.33750000000001 371.7292895340409,32.000000000000014 519.1430463116188,32.00000000000001 C 787.1680586344878,32 787.1680586344878,32 783.8579063287692,27.75 C 782.037322560624,25.4125 777.7538519670002,20.6751759324693 774.339082787383,17.222613183265107 C 770.9243136077658,13.770050434060916 766.1188792982883,10.055430008597359 763.660339877433,8.967901126679422 C 761.0838066419185,7.8281779702906835 755.9729420802446,6.780770132592277 751.5951341015752,6.495287943414313 C 747.4178103457089,6.2228795745364405 740.7375,5.8875 736.75,5.75" stroke="none" stroke-width="1" style="fill: rgb(106, 107, 109);" />
  <path d=" M 130.72877794368156 126.09958535225445 C 130.6029500746567,125.3293572959944 117.84196053995514,145.1293572959944 102.37102342212253,170.09958535225445 C 86.90008630428993,195.0698134085145 62.659521917480994,234.39999999999998 48.50310256254712,257.5 C 34.346683207613246,280.6 22.544077705775372,300.0625 22.275090336240723,300.75 C 21.887084032174894,301.7416983630374 34.4132505820112,302 82.89301119581614,302 C 144,302 144,302 143.99975431591736,299.25 C 143.99961918967188,297.7375 142.42091361898036,275.35 140.49151971438062,249.5 C 138.56212580978087,223.64999999999998 135.62768644227478,185.625 133.97054334214482,165 C 132.31340024201486,144.375 130.8546058127064,126.8698134085145 130.72877794368156,126.09958535225445" stroke="none" stroke-width="1" style="fill: rgb(106, 107, 109);" />
  <path d=" M 701.5 87.57895663830904 C 688.85,87.34991369357688 670.4,87.52485929974195 660.5,87.9677246520092 C 650.6,88.41059000427643 637.325,89.31090180681161 631,89.96841754653181 C 624.675,90.62593328625202 613.1275459841289,92.23166319555484 605.338991075842,93.53670623387143 C 597.5504361675552,94.84174927218803 585.8504361675551,97.24490585742204 579.338991075842,98.87705420105814 C 572.827545984129,100.50920254469426 562.5521262177936,103.51887222439902 556.50472492843,105.5652090448465 C 550.4573236390667,107.61154586529398 541.9799470851359,110.79651162038658 537.6661103641395,112.64291072283005 C 533.3522736431432,114.48930982527352 529.3827895264039,116 528.8450345491633,116 C 528.3072795719227,116 529.9019802521294,113.4125 532.3888138385116,110.25 C 534.8756474248938,107.0875 540.1271901047693,100.9 544.0589086826792,96.5 C 551.207487915243,88.5 551.207487915243,88.5 509.3537439576215,88.24513331128068 C 486.33418478092966,88.10495663248504 463.45,88.32995663248505 458.5,88.74513331128068 C 449.5,89.5 449.5,89.5 446.2840607761618,96 C 444.11646012561096,100.38111644776842 438.47090785069486,119.614059460332 428.9654640329351,155 C 421.20900239727126,183.875 409.30235445061936,227.975 402.50624637370856,253 C 395.7101382967978,278.025 390.00350683124987,299.31841561128584 389.8248431169354,300.31870135841297 C 389.51319373851356,302.0635348436705 392.90857112628134,302.14720606306037 473.4224506243361,302.3787709646435 C 519.5797984677209,302.51152350094316 556.7047984677209,302.2466645906614 555.9224506243361,301.79019560846183 C 555.1401027809512,301.33372662626226 549.775,298.0498749542119 544,294.49274744834986 C 538.225,290.93561994248785 530.6203592789321,285.4565327106863 527.1007983976269,282.31699804434646 C 523.5812375163216,279.1774633780066 518.1812375163216,273.205174739001 515.1007983976269,269.04524551322277 C 512.0203592789321,264.8853162874446 508.0230744087249,258.2686597207817 506.21794313049975,254.34156425397188 C 504.4128118522746,250.41446878716206 501.775376324822,242.76857777541437 500.3569752917162,237.350695338977 C 498.2786174101863,229.41196827931353 497.76539533965274,225.07381558671767 497.71279216756915,215 C 497.67689248239407,208.125 498.22377161376033,199.8 498.92807912616087,196.5 C 499.6323866385614,193.2 501.526084323993,187.0600026757937 503.13629620489786,182.85556150176376 C 504.7465080858027,178.6511203277338 507.7726088305606,172.5761203277338 509.8609645265821,169.35556150176376 C 511.9493202226036,166.1350026757937 515.8724305343133,161.31215422245492 518.5789874414925,158.6381204943443 C 521.2855443486716,155.96408676623366 526.0676379343512,152.0233073406349 529.205862076336,149.8808328819026 C 532.3440862183209,147.7383584231703 539.7690862183208,143.56515252719225 545.705862076336,140.60704200195136 C 551.6426379343512,137.64893147671046 560.325,133.85992591846437 565,132.18702965029337 C 569.675,130.51413338212237 576.65,128.2403815805912 580.5,127.13424786911303 C 584.35,126.02811415763485 592.9,124.00064424766344 599.5,122.62875918028767 C 606.1,121.2568741129119 614.3630891251007,119.81532925600536 617.8624202780015,119.42532616493978 C 624.2248405560031,118.71622963572963 624.2248405560031,118.71622963572963 623.4841095814334,121.10811481786482 C 623.0767075454199,122.42365166803917 621.9539612118491,125.075 620.9891177290538,127 C 620.0242742462583,128.925 617.6060961753916,134.44498648431605 615.6153886826833,139.2666366318134 C 613.624681189975,144.0882867793108 610.1785873369829,153.30373761080565 607.9574023427009,159.74541625735753 C 605.7362173484189,166.18709490390938 602.8279078773678,175.7614348837983 601.4944924070319,181.02172732377736 C 600.161076936696,186.2820197637564 598.336179898008,195.06656893226156 597.439165654392,200.54294769823326 C 596.542151410776,206.01932646420497 595.798238790414,216.125 595.786026498032,223 C 595.7676445678546,233.34824306657472 596.1280136556838,236.4556351171732 597.8794848844746,241.05148157261857 C 599.0430992894001,244.1047964375588 601.5162640756936,248.0772874386359 603.3754066317935,249.8792393527899 C 605.2345491878933,251.6811912669439 608.4981410141443,253.55978907382823 610.6278329123511,254.05390114586623 C 612.757524810558,254.5480132179042 639.8125,254.9630222168271 670.75,254.9761433656949 C 701.6875,254.9892645145627 727,255.1983310223895 727,255.44073560531 C 727,255.6831401882305 724.3462605520727,266.21663866390355 721.1028012268284,278.8485099956945 C 715.2056024536568,301.81554878076895 715.2056024536568,301.81554878076895 726.3528012268284,302.489637597138 C 732.9117829787028,302.8862696421634 741.0722876736772,302.7104853815222 746.1789706303327,302.0625649269772 C 750.9524044770159,301.45692610938573 756.787659626968,300.2805591460801 759.1462042968931,299.44841611963136 C 761.5047489668182,298.6162730931826 765.252241749722,296.87014203824276 767.4739660366793,295.5681248864317 C 769.6956903236364,294.2661077346206 773.7944581484719,290.91982756581376 776.5823389807579,288.13194673352757 C 779.3864636795741,285.3278220347111 783.0743381499342,280.14432613872265 784.836396023647,276.5304480515801 C 786.5882465649499,272.93750460879517 788.453251938193,267.86081329786856 788.9808524086316,265.2489118050765 C 789.5352897777256,262.5041534639923 790.0582660494434,224.10037008801427 790.2200629956236,174.24980245020308 C 790.5,87.99960490040615 790.5,87.99960490040615 757.5,87.99750162820501 C 739.35,87.99634482849439 714.15,87.8079995830412 701.5,87.57895663830904" stroke="none" stroke-width="1" style="fill: rgb(45, 52, 140);" />
</svg>